<mxfile host="app.diagrams.net" agent="Mozilla/5.0 (Macintosh; Intel Mac OS X 10_15_7) AppleWebKit/537.36 (KHTML, like Gecko) Chrome/135.0.0.0 Safari/537.36" version="26.2.14">
  <diagram name="第 1 页" id="zMmR31qMb3b2CWSOKHbf">
    <mxGraphModel dx="979" dy="639" grid="1" gridSize="10" guides="1" tooltips="1" connect="1" arrows="1" fold="1" page="1" pageScale="1" pageWidth="827" pageHeight="1169" math="0" shadow="0">
      <root>
        <mxCell id="0" />
        <mxCell id="1" parent="0" />
        <mxCell id="YviTpb6_tVdekd0D2BlD-29" style="edgeStyle=orthogonalEdgeStyle;rounded=0;orthogonalLoop=1;jettySize=auto;html=1;entryX=0.5;entryY=1;entryDx=0;entryDy=0;" edge="1" parent="1" source="YviTpb6_tVdekd0D2BlD-1" target="YviTpb6_tVdekd0D2BlD-9">
          <mxGeometry relative="1" as="geometry" />
        </mxCell>
        <mxCell id="YviTpb6_tVdekd0D2BlD-1" value="S0_0" style="rounded=0;whiteSpace=wrap;html=1;" vertex="1" parent="1">
          <mxGeometry x="100" y="690" width="120" height="30" as="geometry" />
        </mxCell>
        <mxCell id="YviTpb6_tVdekd0D2BlD-30" style="edgeStyle=orthogonalEdgeStyle;rounded=0;orthogonalLoop=1;jettySize=auto;html=1;entryX=0.5;entryY=1;entryDx=0;entryDy=0;" edge="1" parent="1" source="YviTpb6_tVdekd0D2BlD-2" target="YviTpb6_tVdekd0D2BlD-10">
          <mxGeometry relative="1" as="geometry" />
        </mxCell>
        <mxCell id="YviTpb6_tVdekd0D2BlD-2" value="S0_1" style="rounded=0;whiteSpace=wrap;html=1;" vertex="1" parent="1">
          <mxGeometry x="270" y="690" width="120" height="30" as="geometry" />
        </mxCell>
        <mxCell id="YviTpb6_tVdekd0D2BlD-31" style="edgeStyle=orthogonalEdgeStyle;rounded=0;orthogonalLoop=1;jettySize=auto;html=1;entryX=0.5;entryY=1;entryDx=0;entryDy=0;" edge="1" parent="1" source="YviTpb6_tVdekd0D2BlD-3" target="YviTpb6_tVdekd0D2BlD-11">
          <mxGeometry relative="1" as="geometry" />
        </mxCell>
        <mxCell id="YviTpb6_tVdekd0D2BlD-3" value="S1_0" style="rounded=0;whiteSpace=wrap;html=1;" vertex="1" parent="1">
          <mxGeometry x="450" y="690" width="120" height="30" as="geometry" />
        </mxCell>
        <mxCell id="YviTpb6_tVdekd0D2BlD-36" style="edgeStyle=orthogonalEdgeStyle;rounded=0;orthogonalLoop=1;jettySize=auto;html=1;entryX=0.5;entryY=1;entryDx=0;entryDy=0;" edge="1" parent="1" source="YviTpb6_tVdekd0D2BlD-4" target="YviTpb6_tVdekd0D2BlD-12">
          <mxGeometry relative="1" as="geometry" />
        </mxCell>
        <mxCell id="YviTpb6_tVdekd0D2BlD-4" value="S1_1" style="rounded=0;whiteSpace=wrap;html=1;" vertex="1" parent="1">
          <mxGeometry x="620" y="690" width="120" height="30" as="geometry" />
        </mxCell>
        <mxCell id="YviTpb6_tVdekd0D2BlD-25" style="edgeStyle=orthogonalEdgeStyle;rounded=0;orthogonalLoop=1;jettySize=auto;html=1;entryX=0.5;entryY=1;entryDx=0;entryDy=0;" edge="1" parent="1" source="YviTpb6_tVdekd0D2BlD-9" target="YviTpb6_tVdekd0D2BlD-17">
          <mxGeometry relative="1" as="geometry" />
        </mxCell>
        <mxCell id="YviTpb6_tVdekd0D2BlD-9" value="Attn Q K V" style="rounded=1;whiteSpace=wrap;html=1;" vertex="1" parent="1">
          <mxGeometry x="100" y="540" width="120" height="60" as="geometry" />
        </mxCell>
        <mxCell id="YviTpb6_tVdekd0D2BlD-28" style="edgeStyle=orthogonalEdgeStyle;rounded=0;orthogonalLoop=1;jettySize=auto;html=1;entryX=0.5;entryY=1;entryDx=0;entryDy=0;" edge="1" parent="1" source="YviTpb6_tVdekd0D2BlD-10" target="YviTpb6_tVdekd0D2BlD-18">
          <mxGeometry relative="1" as="geometry" />
        </mxCell>
        <mxCell id="YviTpb6_tVdekd0D2BlD-10" value="Attn Q K V" style="rounded=1;whiteSpace=wrap;html=1;" vertex="1" parent="1">
          <mxGeometry x="270" y="540" width="120" height="60" as="geometry" />
        </mxCell>
        <mxCell id="YviTpb6_tVdekd0D2BlD-32" style="edgeStyle=orthogonalEdgeStyle;rounded=0;orthogonalLoop=1;jettySize=auto;html=1;entryX=0.5;entryY=1;entryDx=0;entryDy=0;" edge="1" parent="1" source="YviTpb6_tVdekd0D2BlD-11" target="YviTpb6_tVdekd0D2BlD-19">
          <mxGeometry relative="1" as="geometry" />
        </mxCell>
        <mxCell id="YviTpb6_tVdekd0D2BlD-11" value="Attn Q K V" style="rounded=1;whiteSpace=wrap;html=1;" vertex="1" parent="1">
          <mxGeometry x="450" y="540" width="120" height="60" as="geometry" />
        </mxCell>
        <mxCell id="YviTpb6_tVdekd0D2BlD-35" style="edgeStyle=orthogonalEdgeStyle;rounded=0;orthogonalLoop=1;jettySize=auto;html=1;entryX=0.5;entryY=1;entryDx=0;entryDy=0;" edge="1" parent="1" source="YviTpb6_tVdekd0D2BlD-12" target="YviTpb6_tVdekd0D2BlD-20">
          <mxGeometry relative="1" as="geometry" />
        </mxCell>
        <mxCell id="YviTpb6_tVdekd0D2BlD-12" value="Attn Q K V" style="rounded=1;whiteSpace=wrap;html=1;" vertex="1" parent="1">
          <mxGeometry x="620" y="540" width="120" height="60" as="geometry" />
        </mxCell>
        <mxCell id="YviTpb6_tVdekd0D2BlD-13" value="" style="shape=flexArrow;endArrow=classic;startArrow=classic;html=1;rounded=0;" edge="1" parent="1">
          <mxGeometry width="100" height="100" relative="1" as="geometry">
            <mxPoint x="170" y="510" as="sourcePoint" />
            <mxPoint x="320" y="510" as="targetPoint" />
          </mxGeometry>
        </mxCell>
        <mxCell id="YviTpb6_tVdekd0D2BlD-14" value="AlltoAll" style="edgeLabel;html=1;align=center;verticalAlign=middle;resizable=0;points=[];" vertex="1" connectable="0" parent="YviTpb6_tVdekd0D2BlD-13">
          <mxGeometry x="-0.0133" y="1" relative="1" as="geometry">
            <mxPoint as="offset" />
          </mxGeometry>
        </mxCell>
        <mxCell id="YviTpb6_tVdekd0D2BlD-15" value="" style="shape=flexArrow;endArrow=classic;startArrow=classic;html=1;rounded=0;" edge="1" parent="1">
          <mxGeometry width="100" height="100" relative="1" as="geometry">
            <mxPoint x="520" y="510" as="sourcePoint" />
            <mxPoint x="670" y="510" as="targetPoint" />
          </mxGeometry>
        </mxCell>
        <mxCell id="YviTpb6_tVdekd0D2BlD-16" value="AlltoAll" style="edgeLabel;html=1;align=center;verticalAlign=middle;resizable=0;points=[];" vertex="1" connectable="0" parent="YviTpb6_tVdekd0D2BlD-15">
          <mxGeometry x="-0.0133" y="1" relative="1" as="geometry">
            <mxPoint as="offset" />
          </mxGeometry>
        </mxCell>
        <mxCell id="YviTpb6_tVdekd0D2BlD-26" style="edgeStyle=orthogonalEdgeStyle;rounded=0;orthogonalLoop=1;jettySize=auto;html=1;entryX=0.5;entryY=1;entryDx=0;entryDy=0;" edge="1" parent="1" source="YviTpb6_tVdekd0D2BlD-17" target="YviTpb6_tVdekd0D2BlD-21">
          <mxGeometry relative="1" as="geometry" />
        </mxCell>
        <mxCell id="YviTpb6_tVdekd0D2BlD-17" value="Attn O" style="rounded=1;whiteSpace=wrap;html=1;" vertex="1" parent="1">
          <mxGeometry x="100" y="410" width="120" height="60" as="geometry" />
        </mxCell>
        <mxCell id="YviTpb6_tVdekd0D2BlD-27" style="edgeStyle=orthogonalEdgeStyle;rounded=0;orthogonalLoop=1;jettySize=auto;html=1;entryX=0.5;entryY=1;entryDx=0;entryDy=0;" edge="1" parent="1" source="YviTpb6_tVdekd0D2BlD-18" target="YviTpb6_tVdekd0D2BlD-22">
          <mxGeometry relative="1" as="geometry" />
        </mxCell>
        <mxCell id="YviTpb6_tVdekd0D2BlD-18" value="Attn O" style="rounded=1;whiteSpace=wrap;html=1;" vertex="1" parent="1">
          <mxGeometry x="270" y="410" width="120" height="60" as="geometry" />
        </mxCell>
        <mxCell id="YviTpb6_tVdekd0D2BlD-33" style="edgeStyle=orthogonalEdgeStyle;rounded=0;orthogonalLoop=1;jettySize=auto;html=1;entryX=0.5;entryY=1;entryDx=0;entryDy=0;" edge="1" parent="1" source="YviTpb6_tVdekd0D2BlD-19" target="YviTpb6_tVdekd0D2BlD-23">
          <mxGeometry relative="1" as="geometry" />
        </mxCell>
        <mxCell id="YviTpb6_tVdekd0D2BlD-19" value="Attn O" style="rounded=1;whiteSpace=wrap;html=1;" vertex="1" parent="1">
          <mxGeometry x="450" y="410" width="120" height="60" as="geometry" />
        </mxCell>
        <mxCell id="YviTpb6_tVdekd0D2BlD-34" style="edgeStyle=orthogonalEdgeStyle;rounded=0;orthogonalLoop=1;jettySize=auto;html=1;entryX=0.5;entryY=1;entryDx=0;entryDy=0;" edge="1" parent="1" source="YviTpb6_tVdekd0D2BlD-20" target="YviTpb6_tVdekd0D2BlD-24">
          <mxGeometry relative="1" as="geometry" />
        </mxCell>
        <mxCell id="YviTpb6_tVdekd0D2BlD-20" value="Attn O" style="rounded=1;whiteSpace=wrap;html=1;" vertex="1" parent="1">
          <mxGeometry x="620" y="410" width="120" height="60" as="geometry" />
        </mxCell>
        <mxCell id="YviTpb6_tVdekd0D2BlD-21" value="MLP" style="rounded=1;whiteSpace=wrap;html=1;" vertex="1" parent="1">
          <mxGeometry x="100" y="270" width="120" height="60" as="geometry" />
        </mxCell>
        <mxCell id="YviTpb6_tVdekd0D2BlD-22" value="MLP" style="rounded=1;whiteSpace=wrap;html=1;" vertex="1" parent="1">
          <mxGeometry x="270" y="270" width="120" height="60" as="geometry" />
        </mxCell>
        <mxCell id="YviTpb6_tVdekd0D2BlD-23" value="MLP" style="rounded=1;whiteSpace=wrap;html=1;" vertex="1" parent="1">
          <mxGeometry x="450" y="270" width="120" height="60" as="geometry" />
        </mxCell>
        <mxCell id="YviTpb6_tVdekd0D2BlD-24" value="MLP" style="rounded=1;whiteSpace=wrap;html=1;" vertex="1" parent="1">
          <mxGeometry x="620" y="270" width="120" height="60" as="geometry" />
        </mxCell>
        <mxCell id="YviTpb6_tVdekd0D2BlD-37" value="USP Group 0" style="swimlane;whiteSpace=wrap;html=1;" vertex="1" parent="1">
          <mxGeometry x="80" y="190" width="340" height="550" as="geometry" />
        </mxCell>
        <mxCell id="YviTpb6_tVdekd0D2BlD-38" value="USP Group 1" style="swimlane;whiteSpace=wrap;html=1;startSize=23;" vertex="1" parent="1">
          <mxGeometry x="440" y="190" width="340" height="550" as="geometry" />
        </mxCell>
        <mxCell id="YviTpb6_tVdekd0D2BlD-40" value="DPzero0 USP" style="text;html=1;align=center;verticalAlign=middle;whiteSpace=wrap;rounded=0;" vertex="1" parent="1">
          <mxGeometry x="350" y="120" width="60" height="30" as="geometry" />
        </mxCell>
        <mxCell id="YviTpb6_tVdekd0D2BlD-41" style="edgeStyle=orthogonalEdgeStyle;rounded=0;orthogonalLoop=1;jettySize=auto;html=1;entryX=0.5;entryY=1;entryDx=0;entryDy=0;" edge="1" parent="1" source="YviTpb6_tVdekd0D2BlD-42" target="YviTpb6_tVdekd0D2BlD-50">
          <mxGeometry relative="1" as="geometry" />
        </mxCell>
        <mxCell id="YviTpb6_tVdekd0D2BlD-42" value="S0_0" style="rounded=0;whiteSpace=wrap;html=1;" vertex="1" parent="1">
          <mxGeometry x="847" y="690" width="120" height="30" as="geometry" />
        </mxCell>
        <mxCell id="YviTpb6_tVdekd0D2BlD-43" style="edgeStyle=orthogonalEdgeStyle;rounded=0;orthogonalLoop=1;jettySize=auto;html=1;entryX=0.5;entryY=1;entryDx=0;entryDy=0;" edge="1" parent="1" source="YviTpb6_tVdekd0D2BlD-44" target="YviTpb6_tVdekd0D2BlD-52">
          <mxGeometry relative="1" as="geometry" />
        </mxCell>
        <mxCell id="YviTpb6_tVdekd0D2BlD-44" value="S0_1" style="rounded=0;whiteSpace=wrap;html=1;" vertex="1" parent="1">
          <mxGeometry x="1017" y="690" width="120" height="30" as="geometry" />
        </mxCell>
        <mxCell id="YviTpb6_tVdekd0D2BlD-45" style="edgeStyle=orthogonalEdgeStyle;rounded=0;orthogonalLoop=1;jettySize=auto;html=1;entryX=0.5;entryY=1;entryDx=0;entryDy=0;" edge="1" parent="1" source="YviTpb6_tVdekd0D2BlD-46" target="YviTpb6_tVdekd0D2BlD-54">
          <mxGeometry relative="1" as="geometry" />
        </mxCell>
        <mxCell id="YviTpb6_tVdekd0D2BlD-46" value="S1_0" style="rounded=0;whiteSpace=wrap;html=1;" vertex="1" parent="1">
          <mxGeometry x="1197" y="690" width="120" height="30" as="geometry" />
        </mxCell>
        <mxCell id="YviTpb6_tVdekd0D2BlD-47" style="edgeStyle=orthogonalEdgeStyle;rounded=0;orthogonalLoop=1;jettySize=auto;html=1;entryX=0.5;entryY=1;entryDx=0;entryDy=0;" edge="1" parent="1" source="YviTpb6_tVdekd0D2BlD-48" target="YviTpb6_tVdekd0D2BlD-56">
          <mxGeometry relative="1" as="geometry" />
        </mxCell>
        <mxCell id="YviTpb6_tVdekd0D2BlD-48" value="S1_1" style="rounded=0;whiteSpace=wrap;html=1;" vertex="1" parent="1">
          <mxGeometry x="1367" y="690" width="120" height="30" as="geometry" />
        </mxCell>
        <mxCell id="YviTpb6_tVdekd0D2BlD-49" style="edgeStyle=orthogonalEdgeStyle;rounded=0;orthogonalLoop=1;jettySize=auto;html=1;entryX=0.5;entryY=1;entryDx=0;entryDy=0;" edge="1" parent="1" source="YviTpb6_tVdekd0D2BlD-50" target="YviTpb6_tVdekd0D2BlD-62">
          <mxGeometry relative="1" as="geometry" />
        </mxCell>
        <mxCell id="YviTpb6_tVdekd0D2BlD-50" value="Attn Q K V" style="rounded=1;whiteSpace=wrap;html=1;" vertex="1" parent="1">
          <mxGeometry x="847" y="580" width="120" height="20" as="geometry" />
        </mxCell>
        <mxCell id="YviTpb6_tVdekd0D2BlD-53" style="edgeStyle=orthogonalEdgeStyle;rounded=0;orthogonalLoop=1;jettySize=auto;html=1;entryX=0.5;entryY=1;entryDx=0;entryDy=0;" edge="1" parent="1" source="YviTpb6_tVdekd0D2BlD-54" target="YviTpb6_tVdekd0D2BlD-66">
          <mxGeometry relative="1" as="geometry" />
        </mxCell>
        <mxCell id="YviTpb6_tVdekd0D2BlD-57" value="" style="shape=flexArrow;endArrow=classic;startArrow=classic;html=1;rounded=0;" edge="1" parent="1">
          <mxGeometry width="100" height="100" relative="1" as="geometry">
            <mxPoint x="917" y="510" as="sourcePoint" />
            <mxPoint x="1067" y="510" as="targetPoint" />
          </mxGeometry>
        </mxCell>
        <mxCell id="YviTpb6_tVdekd0D2BlD-58" value="AlltoAll" style="edgeLabel;html=1;align=center;verticalAlign=middle;resizable=0;points=[];" vertex="1" connectable="0" parent="YviTpb6_tVdekd0D2BlD-57">
          <mxGeometry x="-0.0133" y="1" relative="1" as="geometry">
            <mxPoint as="offset" />
          </mxGeometry>
        </mxCell>
        <mxCell id="YviTpb6_tVdekd0D2BlD-59" value="" style="shape=flexArrow;endArrow=classic;startArrow=classic;html=1;rounded=0;" edge="1" parent="1">
          <mxGeometry width="100" height="100" relative="1" as="geometry">
            <mxPoint x="1267" y="510" as="sourcePoint" />
            <mxPoint x="1417" y="510" as="targetPoint" />
          </mxGeometry>
        </mxCell>
        <mxCell id="YviTpb6_tVdekd0D2BlD-60" value="AlltoAll" style="edgeLabel;html=1;align=center;verticalAlign=middle;resizable=0;points=[];" vertex="1" connectable="0" parent="YviTpb6_tVdekd0D2BlD-59">
          <mxGeometry x="-0.0133" y="1" relative="1" as="geometry">
            <mxPoint as="offset" />
          </mxGeometry>
        </mxCell>
        <mxCell id="YviTpb6_tVdekd0D2BlD-61" style="edgeStyle=orthogonalEdgeStyle;rounded=0;orthogonalLoop=1;jettySize=auto;html=1;entryX=0.5;entryY=1;entryDx=0;entryDy=0;" edge="1" parent="1" source="YviTpb6_tVdekd0D2BlD-62" target="YviTpb6_tVdekd0D2BlD-69">
          <mxGeometry relative="1" as="geometry" />
        </mxCell>
        <mxCell id="YviTpb6_tVdekd0D2BlD-62" value="Attn O" style="rounded=1;whiteSpace=wrap;html=1;" vertex="1" parent="1">
          <mxGeometry x="847" y="450" width="120" height="20" as="geometry" />
        </mxCell>
        <mxCell id="YviTpb6_tVdekd0D2BlD-65" style="edgeStyle=orthogonalEdgeStyle;rounded=0;orthogonalLoop=1;jettySize=auto;html=1;entryX=0.5;entryY=1;entryDx=0;entryDy=0;" edge="1" parent="1" source="YviTpb6_tVdekd0D2BlD-66" target="YviTpb6_tVdekd0D2BlD-71">
          <mxGeometry relative="1" as="geometry" />
        </mxCell>
        <mxCell id="YviTpb6_tVdekd0D2BlD-66" value="Attn O" style="rounded=1;whiteSpace=wrap;html=1;" vertex="1" parent="1">
          <mxGeometry x="1197" y="410" width="120" height="20" as="geometry" />
        </mxCell>
        <mxCell id="YviTpb6_tVdekd0D2BlD-69" value="MLP" style="rounded=1;whiteSpace=wrap;html=1;" vertex="1" parent="1">
          <mxGeometry x="847" y="310" width="120" height="20" as="geometry" />
        </mxCell>
        <mxCell id="YviTpb6_tVdekd0D2BlD-73" value="USP Group 0" style="swimlane;whiteSpace=wrap;html=1;" vertex="1" parent="1">
          <mxGeometry x="827" y="190" width="340" height="550" as="geometry" />
        </mxCell>
        <mxCell id="YviTpb6_tVdekd0D2BlD-64" value="Attn O" style="rounded=1;whiteSpace=wrap;html=1;" vertex="1" parent="YviTpb6_tVdekd0D2BlD-73">
          <mxGeometry x="190" y="240" width="120" height="20" as="geometry" />
        </mxCell>
        <mxCell id="YviTpb6_tVdekd0D2BlD-70" value="MLP" style="rounded=1;whiteSpace=wrap;html=1;" vertex="1" parent="YviTpb6_tVdekd0D2BlD-73">
          <mxGeometry x="190" y="100" width="120" height="20" as="geometry" />
        </mxCell>
        <mxCell id="YviTpb6_tVdekd0D2BlD-63" style="edgeStyle=orthogonalEdgeStyle;rounded=0;orthogonalLoop=1;jettySize=auto;html=1;entryX=0.5;entryY=1;entryDx=0;entryDy=0;" edge="1" parent="YviTpb6_tVdekd0D2BlD-73" source="YviTpb6_tVdekd0D2BlD-64" target="YviTpb6_tVdekd0D2BlD-70">
          <mxGeometry relative="1" as="geometry" />
        </mxCell>
        <mxCell id="YviTpb6_tVdekd0D2BlD-52" value="Attn Q K V" style="rounded=1;whiteSpace=wrap;html=1;" vertex="1" parent="YviTpb6_tVdekd0D2BlD-73">
          <mxGeometry x="190" y="374.5" width="120" height="20" as="geometry" />
        </mxCell>
        <mxCell id="YviTpb6_tVdekd0D2BlD-51" style="edgeStyle=orthogonalEdgeStyle;rounded=0;orthogonalLoop=1;jettySize=auto;html=1;entryX=0.5;entryY=1;entryDx=0;entryDy=0;" edge="1" parent="YviTpb6_tVdekd0D2BlD-73" source="YviTpb6_tVdekd0D2BlD-52" target="YviTpb6_tVdekd0D2BlD-64">
          <mxGeometry relative="1" as="geometry" />
        </mxCell>
        <mxCell id="YviTpb6_tVdekd0D2BlD-74" value="USP Group 1" style="swimlane;whiteSpace=wrap;html=1;startSize=23;" vertex="1" parent="1">
          <mxGeometry x="1187" y="190" width="340" height="550" as="geometry" />
        </mxCell>
        <mxCell id="YviTpb6_tVdekd0D2BlD-68" value="Attn O" style="rounded=1;whiteSpace=wrap;html=1;" vertex="1" parent="YviTpb6_tVdekd0D2BlD-74">
          <mxGeometry x="180" y="210" width="120" height="20" as="geometry" />
        </mxCell>
        <mxCell id="YviTpb6_tVdekd0D2BlD-71" value="MLP" style="rounded=1;whiteSpace=wrap;html=1;" vertex="1" parent="YviTpb6_tVdekd0D2BlD-74">
          <mxGeometry x="10" y="80" width="120" height="20" as="geometry" />
        </mxCell>
        <mxCell id="YviTpb6_tVdekd0D2BlD-72" value="MLP" style="rounded=1;whiteSpace=wrap;html=1;" vertex="1" parent="YviTpb6_tVdekd0D2BlD-74">
          <mxGeometry x="180" y="60" width="120" height="20" as="geometry" />
        </mxCell>
        <mxCell id="YviTpb6_tVdekd0D2BlD-67" style="edgeStyle=orthogonalEdgeStyle;rounded=0;orthogonalLoop=1;jettySize=auto;html=1;entryX=0.5;entryY=1;entryDx=0;entryDy=0;" edge="1" parent="YviTpb6_tVdekd0D2BlD-74" source="YviTpb6_tVdekd0D2BlD-68" target="YviTpb6_tVdekd0D2BlD-72">
          <mxGeometry relative="1" as="geometry" />
        </mxCell>
        <mxCell id="YviTpb6_tVdekd0D2BlD-54" value="Attn Q K V" style="rounded=1;whiteSpace=wrap;html=1;" vertex="1" parent="YviTpb6_tVdekd0D2BlD-74">
          <mxGeometry x="10" y="350" width="120" height="20" as="geometry" />
        </mxCell>
        <mxCell id="YviTpb6_tVdekd0D2BlD-56" value="Attn Q K V" style="rounded=1;whiteSpace=wrap;html=1;" vertex="1" parent="YviTpb6_tVdekd0D2BlD-74">
          <mxGeometry x="180" y="340" width="120" height="20" as="geometry" />
        </mxCell>
        <mxCell id="YviTpb6_tVdekd0D2BlD-55" style="edgeStyle=orthogonalEdgeStyle;rounded=0;orthogonalLoop=1;jettySize=auto;html=1;entryX=0.5;entryY=1;entryDx=0;entryDy=0;" edge="1" parent="YviTpb6_tVdekd0D2BlD-74" source="YviTpb6_tVdekd0D2BlD-56" target="YviTpb6_tVdekd0D2BlD-68">
          <mxGeometry relative="1" as="geometry" />
        </mxCell>
        <mxCell id="YviTpb6_tVdekd0D2BlD-78" value="" style="shape=flexArrow;endArrow=classic;startArrow=classic;html=1;rounded=0;" edge="1" parent="YviTpb6_tVdekd0D2BlD-74">
          <mxGeometry width="100" height="100" relative="1" as="geometry">
            <mxPoint x="-287" y="290" as="sourcePoint" />
            <mxPoint x="253" y="290" as="targetPoint" />
          </mxGeometry>
        </mxCell>
        <mxCell id="YviTpb6_tVdekd0D2BlD-79" value="AllGather" style="edgeLabel;html=1;align=center;verticalAlign=middle;resizable=0;points=[];" vertex="1" connectable="0" parent="YviTpb6_tVdekd0D2BlD-78">
          <mxGeometry x="-0.0283" y="-2" relative="1" as="geometry">
            <mxPoint as="offset" />
          </mxGeometry>
        </mxCell>
        <mxCell id="YviTpb6_tVdekd0D2BlD-80" value="" style="shape=flexArrow;endArrow=classic;startArrow=classic;html=1;rounded=0;" edge="1" parent="YviTpb6_tVdekd0D2BlD-74">
          <mxGeometry width="100" height="100" relative="1" as="geometry">
            <mxPoint x="-297" y="150" as="sourcePoint" />
            <mxPoint x="243" y="150" as="targetPoint" />
          </mxGeometry>
        </mxCell>
        <mxCell id="YviTpb6_tVdekd0D2BlD-81" value="AllGather" style="edgeLabel;html=1;align=center;verticalAlign=middle;resizable=0;points=[];" vertex="1" connectable="0" parent="YviTpb6_tVdekd0D2BlD-80">
          <mxGeometry x="-0.0283" y="-2" relative="1" as="geometry">
            <mxPoint as="offset" />
          </mxGeometry>
        </mxCell>
        <mxCell id="YviTpb6_tVdekd0D2BlD-76" value="" style="shape=flexArrow;endArrow=classic;startArrow=classic;html=1;rounded=0;" edge="1" parent="YviTpb6_tVdekd0D2BlD-74">
          <mxGeometry width="100" height="100" relative="1" as="geometry">
            <mxPoint x="-277" y="430" as="sourcePoint" />
            <mxPoint x="263" y="430" as="targetPoint" />
          </mxGeometry>
        </mxCell>
        <mxCell id="YviTpb6_tVdekd0D2BlD-77" value="AllGather" style="edgeLabel;html=1;align=center;verticalAlign=middle;resizable=0;points=[];" vertex="1" connectable="0" parent="YviTpb6_tVdekd0D2BlD-76">
          <mxGeometry x="-0.0283" y="-2" relative="1" as="geometry">
            <mxPoint as="offset" />
          </mxGeometry>
        </mxCell>
        <mxCell id="YviTpb6_tVdekd0D2BlD-75" value="DPzero3 USP" style="text;html=1;align=center;verticalAlign=middle;whiteSpace=wrap;rounded=0;" vertex="1" parent="1">
          <mxGeometry x="1097" y="120" width="60" height="30" as="geometry" />
        </mxCell>
        <mxCell id="YviTpb6_tVdekd0D2BlD-83" value="S0 (N/P, d)" style="rounded=0;whiteSpace=wrap;html=1;" vertex="1" parent="1">
          <mxGeometry x="110" y="1430" width="160" height="30" as="geometry" />
        </mxCell>
        <mxCell id="YviTpb6_tVdekd0D2BlD-84" value="S0 (N/P, d)" style="rounded=0;whiteSpace=wrap;html=1;" vertex="1" parent="1">
          <mxGeometry x="310" y="1430" width="160" height="30" as="geometry" />
        </mxCell>
        <mxCell id="YviTpb6_tVdekd0D2BlD-85" value="S0 (N/P, d)" style="rounded=0;whiteSpace=wrap;html=1;" vertex="1" parent="1">
          <mxGeometry x="510" y="1430" width="160" height="30" as="geometry" />
        </mxCell>
        <mxCell id="YviTpb6_tVdekd0D2BlD-89" value="W_Q W_K W_V&lt;div&gt;(d, d)&lt;/div&gt;" style="text;html=1;align=center;verticalAlign=middle;whiteSpace=wrap;rounded=0;" vertex="1" parent="1">
          <mxGeometry x="40" y="1350" width="40" height="60" as="geometry" />
        </mxCell>
        <mxCell id="YviTpb6_tVdekd0D2BlD-90" value="Q (N/P, d)" style="rounded=0;whiteSpace=wrap;html=1;" vertex="1" parent="1">
          <mxGeometry x="140" y="1330" width="90" height="20" as="geometry" />
        </mxCell>
        <mxCell id="YviTpb6_tVdekd0D2BlD-91" value="K (N/P, d)" style="rounded=0;whiteSpace=wrap;html=1;" vertex="1" parent="1">
          <mxGeometry x="140" y="1360" width="90" height="20" as="geometry" />
        </mxCell>
        <mxCell id="YviTpb6_tVdekd0D2BlD-92" value="V (N/P, d)" style="rounded=0;whiteSpace=wrap;html=1;" vertex="1" parent="1">
          <mxGeometry x="140" y="1390" width="90" height="20" as="geometry" />
        </mxCell>
        <mxCell id="YviTpb6_tVdekd0D2BlD-93" value="Q0 (N/P, d/P)" style="rounded=0;whiteSpace=wrap;html=1;" vertex="1" parent="1">
          <mxGeometry x="80" y="1290" width="80" height="20" as="geometry" />
        </mxCell>
        <mxCell id="YviTpb6_tVdekd0D2BlD-94" value="Q1 (N/P, d/P)" style="rounded=0;whiteSpace=wrap;html=1;" vertex="1" parent="1">
          <mxGeometry x="170" y="1290" width="80" height="20" as="geometry" />
        </mxCell>
        <mxCell id="YviTpb6_tVdekd0D2BlD-95" value="Q2 (N/P, d/P)" style="rounded=0;whiteSpace=wrap;html=1;" vertex="1" parent="1">
          <mxGeometry x="260" y="1290" width="80" height="20" as="geometry" />
        </mxCell>
      </root>
    </mxGraphModel>
  </diagram>
</mxfile>
